<svg width="1919" height="1200" viewBox="0 0 1919 1200" fill="none" xmlns="http://www.w3.org/2000/svg">
<rect width="1919" height="1200" fill="white"/>
<rect x="65" y="72" width="1798" height="1058" stroke="#F3856E" stroke-width="10"/>
<rect x="65" y="72" width="372" height="1058" stroke="#F3856E" stroke-width="10"/>
<path d="M128.24 279.472V284.272C128.24 286.672 127.184 287.536 125.504 287.536C123.824 287.536 122.768 286.672 122.768 284.272V266.128C122.768 263.728 123.824 262.816 125.504 262.816C127.184 262.816 128.24 263.728 128.24 266.128V269.728H133.232V266.464C133.232 261.088 130.544 258.016 125.36 258.016C120.176 258.016 117.488 261.088 117.488 266.464V283.936C117.488 289.312 120.176 292.384 125.36 292.384C130.544 292.384 133.232 289.312 133.232 283.936V279.472H128.24ZM141.284 266.128C141.284 263.728 142.34 262.816 144.02 262.816C145.7 262.816 146.756 263.728 146.756 266.128V284.272C146.756 286.672 145.7 287.584 144.02 287.584C142.34 287.584 141.284 286.672 141.284 284.272V266.128ZM136.004 283.936C136.004 289.312 138.836 292.384 144.02 292.384C149.204 292.384 152.036 289.312 152.036 283.936V266.464C152.036 261.088 149.204 258.016 144.02 258.016C138.836 258.016 136.004 261.088 136.004 266.464V283.936ZM163.243 258.4H155.467V292H160.747V279.376H163.243C168.523 279.376 171.115 276.448 171.115 271.072V266.704C171.115 261.328 168.523 258.4 163.243 258.4ZM163.243 263.2C164.923 263.2 165.835 263.968 165.835 266.368V271.408C165.835 273.808 164.923 274.576 163.243 274.576H160.747V263.2H163.243ZM172.025 263.2H177.545V292H182.825V263.2H188.345V258.4H172.025V263.2ZM200.51 276.592L202.67 268.336V292H207.422V258.4H201.614L197.294 272.272L195.374 279.664V258.4H190.67V292H196.094L200.51 276.592ZM218.93 258.4H211.154V292H216.434V279.376H218.93C224.21 279.376 226.802 276.448 226.802 271.072V266.704C226.802 261.328 224.21 258.4 218.93 258.4ZM218.93 263.2C220.61 263.2 221.522 263.968 221.522 266.368V271.408C221.522 273.808 220.61 274.576 218.93 274.576H216.434V263.2H218.93ZM234.096 266.128C234.096 263.728 235.152 262.816 236.832 262.816C238.512 262.816 239.568 263.728 239.568 266.128V284.272C239.568 286.672 238.512 287.584 236.832 287.584C235.152 287.584 234.096 286.672 234.096 284.272V266.128ZM228.816 283.936C228.816 289.312 231.648 292.384 236.832 292.384C242.016 292.384 244.848 289.312 244.848 283.936V266.464C244.848 261.088 242.016 258.016 236.832 258.016C231.648 258.016 228.816 261.088 228.816 266.464V283.936ZM256.247 258.4H248.279V292H256.583C261.863 292 264.599 289.216 264.599 284.032V281.296C264.599 277.744 263.495 275.2 260.663 274.096C263.015 272.992 264.071 270.784 264.071 267.328V266.128C264.071 260.944 261.719 258.4 256.247 258.4ZM255.911 276.88C258.311 276.88 259.319 277.84 259.319 280.96V283.888C259.319 286.384 258.359 287.2 256.583 287.2H253.559V276.88H255.911ZM256.103 263.2C257.975 263.2 258.791 264.256 258.791 266.656V268.528C258.791 271.216 257.591 272.08 255.623 272.08H253.559V263.2H256.103ZM279.827 292H285.251L277.907 273.376L285.251 258.4H279.971L273.059 273.04V258.4H267.779V292H273.059V281.68L274.691 278.608L279.827 292ZM299.366 258.4H291.638L286.262 292H291.11L292.022 285.904H298.502L299.414 292H304.742L299.366 258.4ZM295.238 264.352L297.782 281.344H292.694L295.238 264.352ZM319.934 263.2H325.934V292H331.31V258.4H314.654V292H319.934V263.2ZM339.987 266.128C339.987 263.728 341.043 262.816 342.723 262.816C344.403 262.816 345.459 263.728 345.459 266.128V284.272C345.459 286.672 344.403 287.584 342.723 287.584C341.043 287.584 339.987 286.672 339.987 284.272V266.128ZM334.707 283.936C334.707 289.312 337.539 292.384 342.723 292.384C347.907 292.384 350.739 289.312 350.739 283.936V266.464C350.739 261.088 347.907 258.016 342.723 258.016C337.539 258.016 334.707 261.088 334.707 266.464V283.936Z" fill="#F3856E"/>
<circle cx="146" cy="368" r="22" fill="#D9D9D9"/>
<circle cx="146" cy="368" r="12" fill="#F3856E"/>
<path d="M186 358H191V382H195.48V354H181.6V382H186V358ZM201.582 364.752C201.582 363.152 202.286 362.544 203.406 362.544C204.526 362.544 205.23 363.152 205.23 364.752V376.848C205.23 378.448 204.526 379.056 203.406 379.056C202.286 379.056 201.582 378.448 201.582 376.848V364.752ZM198.062 376.624C198.062 380.208 199.95 382.256 203.406 382.256C206.862 382.256 208.75 380.208 208.75 376.624V364.976C208.75 361.392 206.862 359.344 203.406 359.344C199.95 359.344 198.062 361.392 198.062 364.976V376.624ZM214.558 362.8H218.558V382H222.142V359.6H211.038V382H214.558V362.8ZM236.278 359.6H232.598L230.998 367.28L230.166 372.496L229.078 367.248L227.158 359.6H223.67L228.534 376.88L228.502 377.072C228.214 378.704 227.19 379.024 225.398 378.896V382.032C230.294 382.352 231.67 380.336 232.502 376.304L236.278 359.6ZM236.765 382.032H237.309C240.829 382.032 242.301 380.432 242.429 376.336L242.813 362.8H245.885V382H249.469V359.6H239.517L238.941 376.528C238.877 378.608 238.365 378.832 236.765 378.832V382.032ZM255.107 382C255.299 381.424 255.427 381.072 255.427 379.248V375.728C255.427 373.648 256.131 372.88 257.731 372.88H258.947V382H262.467V359.6H257.155C253.507 359.6 251.939 361.296 251.939 364.752V366.512C251.939 368.816 252.675 370.32 254.243 371.056C252.483 371.792 251.907 373.488 251.907 375.824V379.28C251.907 380.368 251.875 381.168 251.523 382H255.107ZM258.947 362.8V369.68H257.571C256.259 369.68 255.459 369.104 255.459 367.312V365.104C255.459 363.504 256.003 362.8 257.251 362.8H258.947ZM270.222 359.6H265.038V382H268.558V373.584H270.222C273.742 373.584 275.47 371.632 275.47 368.048V365.136C275.47 361.552 273.742 359.6 270.222 359.6ZM270.222 362.8C271.342 362.8 271.95 363.312 271.95 364.912V368.272C271.95 369.872 271.342 370.384 270.222 370.384H268.558V362.8H270.222ZM280.62 372.4H284.62V382H288.204V359.6H284.62V369.2H280.62V359.6H277.1V382H280.62V372.4ZM293.989 364.752C293.989 363.152 294.693 362.544 295.813 362.544C296.933 362.544 297.637 363.152 297.637 364.752V376.848C297.637 378.448 296.933 379.056 295.813 379.056C294.693 379.056 293.989 378.448 293.989 376.848V364.752ZM290.469 376.624C290.469 380.208 292.357 382.256 295.813 382.256C299.269 382.256 301.157 380.208 301.157 376.624V364.976C301.157 361.392 299.269 359.344 295.813 359.344C292.357 359.344 290.469 361.392 290.469 364.976V376.624ZM310.324 373.648V376.848C310.324 378.448 309.62 379.024 308.5 379.024C307.38 379.024 306.676 378.448 306.676 376.848V364.752C306.676 363.152 307.38 362.544 308.5 362.544C309.62 362.544 310.324 363.152 310.324 364.752V367.152H313.652V364.976C313.652 361.392 311.86 359.344 308.404 359.344C304.948 359.344 303.156 361.392 303.156 364.976V376.624C303.156 380.208 304.948 382.256 308.404 382.256C311.86 382.256 313.652 380.208 313.652 376.624V373.648H310.324ZM314.764 362.8H318.444V382H321.964V362.8H325.644V359.6H314.764V362.8ZM333.754 371.728L335.194 366.224V382H338.362V359.6H334.49L331.61 368.848L330.33 373.776V359.6H327.194V382H330.81L333.754 371.728Z" fill="#F3856E"/>
<circle cx="146" cy="436" r="22" fill="#D9D9D9"/>
<path d="M188.24 422H181.6V450H188.52C192.92 450 195.2 447.68 195.2 443.36V441.08C195.2 438.12 194.28 436 191.92 435.08C193.88 434.16 194.76 432.32 194.76 429.44V428.44C194.76 424.12 192.8 422 188.24 422ZM187.96 437.4C189.96 437.4 190.8 438.2 190.8 440.8V443.24C190.8 445.32 190 446 188.52 446H186V437.4H187.96ZM188.12 426C189.68 426 190.36 426.88 190.36 428.88V430.44C190.36 432.68 189.36 433.4 187.72 433.4H186V426H188.12ZM200.762 432.752C200.762 431.152 201.466 430.544 202.586 430.544C203.706 430.544 204.41 431.152 204.41 432.752V444.848C204.41 446.448 203.706 447.056 202.586 447.056C201.466 447.056 200.762 446.448 200.762 444.848V432.752ZM197.242 444.624C197.242 448.208 199.13 450.256 202.586 450.256C206.042 450.256 207.93 448.208 207.93 444.624V432.976C207.93 429.392 206.042 427.344 202.586 427.344C199.13 427.344 197.242 429.392 197.242 432.976V444.624ZM217.002 434.352C217.002 436.144 216.202 436.72 214.89 436.72H213.834V439.92H214.698C216.298 439.92 217.002 440.688 217.002 442.768V444.528C217.002 446.512 216.298 447.056 215.178 447.056C214.058 447.056 213.354 446.448 213.354 444.848V442.16H210.026V444.624C210.026 448.208 211.818 450.256 215.274 450.256C218.73 450.256 220.522 448.208 220.522 444.624V442.864C220.522 440.592 219.818 438.928 218.058 438.16C219.754 437.456 220.522 435.952 220.522 433.552V432.976C220.522 429.392 218.73 427.344 215.274 427.344C211.818 427.344 210.09 429.328 210.09 432.912V434.576H213.322V432.752C213.322 431.152 214.058 430.544 215.178 430.544C216.298 430.544 217.002 431.088 217.002 433.104V434.352ZM228.089 427.6H222.905V450H226.425V441.584H228.089C231.609 441.584 233.337 439.632 233.337 436.048V433.136C233.337 429.552 231.609 427.6 228.089 427.6ZM228.089 430.8C229.209 430.8 229.817 431.312 229.817 432.912V436.272C229.817 437.872 229.209 438.384 228.089 438.384H226.425V430.8H228.089ZM242.776 427.6H237.624L234.04 450H237.272L237.88 445.936H242.2L242.808 450H246.36L242.776 427.6ZM240.024 431.568L241.72 442.896H238.328L240.024 431.568ZM254.879 441.648V444.848C254.879 446.448 254.175 447.024 253.055 447.024C251.935 447.024 251.231 446.448 251.231 444.848V432.752C251.231 431.152 251.935 430.544 253.055 430.544C254.175 430.544 254.879 431.152 254.879 432.752V435.152H258.207V432.976C258.207 429.392 256.415 427.344 252.959 427.344C249.503 427.344 247.711 429.392 247.711 432.976V444.624C247.711 448.208 249.503 450.256 252.959 450.256C256.415 450.256 258.207 448.208 258.207 444.624V441.648H254.879ZM259.319 430.8H262.999V450H266.519V430.8H270.199V427.6H259.319V430.8ZM279.557 427.6H274.405L270.821 450H274.053L274.661 445.936H278.981L279.589 450H283.141L279.557 427.6ZM276.805 431.568L278.501 442.896H275.109L276.805 431.568ZM288.3 440.4H292.3V450H295.884V427.6H292.3V437.2H288.3V427.6H284.78V450H288.3V440.4ZM304.996 439.728L306.436 434.224V450H309.604V427.6H305.732L302.852 436.848L301.572 441.776V427.6H298.436V450H302.052L304.996 439.728ZM318.237 444.624C318.237 448.208 320.125 450.256 323.581 450.256C327.037 450.256 328.925 448.208 328.925 444.624V432.976C328.925 429.392 327.037 427.344 323.581 427.344C320.125 427.344 318.237 429.392 318.237 432.976V437.2H315.613V427.6H312.093V450H315.613V440.4H318.237V444.624ZM321.757 432.752C321.757 431.152 322.461 430.544 323.581 430.544C324.701 430.544 325.405 431.152 325.405 432.752V444.848C325.405 446.448 324.701 447.056 323.581 447.056C322.461 447.056 321.757 446.448 321.757 444.848V432.752ZM336.218 450H345.434V453.008H348.858V446.864H347.322V427.6H343.738V446.8H339.738V427.6H336.218V450ZM354.3 430.8H360.38V427.6H350.78V450H360.38V446.8H354.3V440.24H359.132V437.04H354.3V430.8ZM366.081 440.4H370.081V450H373.665V427.6H370.081V437.2H366.081V427.6H362.561V450H366.081V440.4ZM381.402 450C384.922 450 386.65 448.048 386.65 444.464V441.552C386.65 437.968 384.922 436.016 381.402 436.016H379.738V427.6H376.218V450H381.402ZM379.738 446.8V439.216H381.402C382.522 439.216 383.13 439.728 383.13 441.328V444.688C383.13 446.288 382.522 446.8 381.402 446.8H379.738ZM392.186 450V427.6H388.666V450H392.186Z" fill="#F3856E"/>
<circle cx="146" cy="504" r="22" fill="#D9D9D9"/>
<circle cx="101" cy="883" r="16" fill="black"/>
<circle cx="392" cy="883" r="16" fill="black"/>
<path d="M196.08 490H191.48L189.48 499.6L188.44 506.12L187.08 499.56L184.68 490H180.32L186.4 511.6L186.36 511.84C186 513.88 184.72 514.28 182.48 514.12V518.04C188.6 518.44 190.32 515.92 191.36 510.88L196.08 490ZM203.208 518C206.728 518 208.52 516.048 208.52 512.464V510.064C208.52 506.48 206.728 504.528 203.208 504.528H201.16V498.8H207.496V495.6H197.64V518H203.208ZM201.16 514.8V507.728H203.208C204.328 507.728 205 508.24 205 509.84V512.688C205 514.288 204.328 514.8 203.208 514.8H201.16ZM216.073 518C219.593 518 221.321 516.048 221.321 512.464V509.552C221.321 505.968 219.593 504.016 216.073 504.016H214.409V495.6H210.889V518H216.073ZM214.409 514.8V507.216H216.073C217.193 507.216 217.801 507.728 217.801 509.328V512.688C217.801 514.288 217.193 514.8 216.073 514.8H214.409ZM226.857 518V495.6H223.337V518H226.857ZM234.733 495.6H229.421V518H234.957C238.477 518 240.301 516.144 240.301 512.688V510.864C240.301 508.496 239.565 506.8 237.677 506.064C239.245 505.328 239.949 503.856 239.949 501.552V500.752C239.949 497.296 238.381 495.6 234.733 495.6ZM234.509 507.92C236.109 507.92 236.781 508.56 236.781 510.64V512.592C236.781 514.256 236.141 514.8 234.957 514.8H232.941V507.92H234.509ZM234.637 498.8C235.885 498.8 236.429 499.504 236.429 501.104V502.352C236.429 504.144 235.629 504.72 234.317 504.72H232.941V498.8H234.637ZM250.229 495.6H245.077L241.493 518H244.725L245.333 513.936H249.653L250.261 518H253.813L250.229 495.6ZM247.477 499.568L249.173 510.896H245.781L247.477 499.568ZM258.972 508.4H262.972V518H266.556V495.6H262.972V505.2H258.972V495.6H255.452V518H258.972V508.4ZM275.668 507.728L277.108 502.224V518H280.276V495.6H276.404L273.524 504.848L272.244 509.776V495.6H269.108V518H272.724L275.668 507.728ZM288.908 512.624C288.908 516.208 290.796 518.256 294.252 518.256C297.708 518.256 299.596 516.208 299.596 512.624V500.976C299.596 497.392 297.708 495.344 294.252 495.344C290.796 495.344 288.908 497.392 288.908 500.976V505.2H286.284V495.6H282.764V518H286.284V508.4H288.908V512.624ZM292.428 500.752C292.428 499.152 293.132 498.544 294.252 498.544C295.372 498.544 296.076 499.152 296.076 500.752V512.848C296.076 514.448 295.372 515.056 294.252 515.056C293.132 515.056 292.428 514.448 292.428 512.848V500.752ZM306.889 518H316.105V521.008H319.529V514.864H317.993V495.6H314.409V514.8H310.409V495.6H306.889V518ZM324.972 498.8H331.052V495.6H321.452V518H331.052V514.8H324.972V508.24H329.804V505.04H324.972V498.8ZM336.753 508.4H340.753V518H344.337V495.6H340.753V505.2H336.753V495.6H333.233V518H336.753V508.4ZM352.073 518C355.593 518 357.321 516.048 357.321 512.464V509.552C357.321 505.968 355.593 504.016 352.073 504.016H350.409V495.6H346.889V518H352.073ZM350.409 514.8V507.216H352.073C353.193 507.216 353.801 507.728 353.801 509.328V512.688C353.801 514.288 353.193 514.8 352.073 514.8H350.409ZM362.857 518V495.6H359.337V518H362.857Z" fill="#F3856E"/>
<rect x="94" y="762" width="144" height="52" fill="#D9D9D9"/>
<rect x="264" y="762" width="144" height="52" fill="#D9D9D9"/>
<rect x="164" y="598" width="164" height="32" rx="9" fill="#594CE6"/>
<rect x="162" y="596" width="164" height="32" rx="9" fill="#333146"/>
<path d="M199.825 612.085V613.585C199.825 614.335 199.495 614.605 198.97 614.605C198.445 614.605 198.115 614.335 198.115 613.585V607.915C198.115 607.165 198.445 606.88 198.97 606.88C199.495 606.88 199.825 607.165 199.825 607.915V609.04H201.385V608.02C201.385 606.34 200.545 605.38 198.925 605.38C197.305 605.38 196.465 606.34 196.465 608.02V613.48C196.465 615.16 197.305 616.12 198.925 616.12C200.545 616.12 201.385 615.16 201.385 613.48V612.085H199.825ZM205.011 616C206.661 616 207.501 615.085 207.501 613.405V612.28C207.501 610.6 206.661 609.685 205.011 609.685H204.051V607H207.021V605.5H202.401V616H205.011ZM204.051 614.5V611.185H205.011C205.536 611.185 205.851 611.425 205.851 612.175V613.51C205.851 614.26 205.536 614.5 205.011 614.5H204.051ZM211.042 605.5H208.612V616H210.262V612.055H211.042C212.692 612.055 213.502 611.14 213.502 609.46V608.095C213.502 606.415 212.692 605.5 211.042 605.5ZM211.042 607C211.567 607 211.852 607.24 211.852 607.99V609.565C211.852 610.315 211.567 610.555 211.042 610.555H210.262V607H211.042ZM215.781 607.915C215.781 607.165 216.111 606.88 216.636 606.88C217.161 606.88 217.491 607.165 217.491 607.915V613.585C217.491 614.335 217.161 614.62 216.636 614.62C216.111 614.62 215.781 614.335 215.781 613.585V607.915ZM214.131 613.48C214.131 615.16 215.016 616.12 216.636 616.12C218.256 616.12 219.141 615.16 219.141 613.48V608.02C219.141 606.34 218.256 605.38 216.636 605.38C215.016 605.38 214.131 606.34 214.131 608.02V613.48ZM223.438 612.085V613.585C223.438 614.335 223.108 614.605 222.583 614.605C222.058 614.605 221.728 614.335 221.728 613.585V607.915C221.728 607.165 222.058 606.88 222.583 606.88C223.108 606.88 223.438 607.165 223.438 607.915V609.04H224.998V608.02C224.998 606.34 224.158 605.38 222.538 605.38C220.918 605.38 220.078 606.34 220.078 608.02V613.48C220.078 615.16 220.918 616.12 222.538 616.12C224.158 616.12 224.998 615.16 224.998 613.48V612.085H223.438ZM229.074 611.185L229.749 608.605V616H231.234V605.5H229.419L228.069 609.835L227.469 612.145V605.5H225.999V616H227.694L229.074 611.185ZM231.921 607H233.646V616H235.296V607H237.021V605.5H231.921V607ZM240.177 616C241.827 616 242.637 615.085 242.637 613.405V612.04C242.637 610.36 241.827 609.445 240.177 609.445H239.397V605.5H237.747V616H240.177ZM239.397 614.5V610.945H240.177C240.702 610.945 240.987 611.185 240.987 611.935V613.51C240.987 614.26 240.702 614.5 240.177 614.5H239.397ZM248.891 616H250.511V614.815H251.126C252.776 614.815 253.586 613.9 253.586 612.22V609.355C253.586 607.675 252.776 606.76 251.126 606.76H250.511V605.5H248.891V606.76H248.276C246.626 606.76 245.816 607.675 245.816 609.355V612.22C245.816 613.9 246.626 614.815 248.276 614.815H248.891V616ZM251.126 608.215C251.651 608.215 251.951 608.5 251.951 609.25V612.325C251.951 613.075 251.651 613.375 251.126 613.375H250.511V608.215H251.126ZM248.891 613.375H248.276C247.751 613.375 247.451 613.075 247.451 612.325V609.25C247.451 608.5 247.751 608.215 248.276 608.215H248.891V613.375ZM257.771 611.185L258.446 608.605V616H259.931V605.5H258.116L256.766 609.835L256.166 612.145V605.5H254.696V616H256.391L257.771 611.185ZM260.632 616.015H260.887C262.537 616.015 263.227 615.265 263.287 613.345L263.467 607H264.907V616H266.587V605.5H261.922L261.652 613.435C261.622 614.41 261.382 614.515 260.632 614.515V616.015ZM270.28 616C271.93 616 272.74 615.085 272.74 613.405V612.04C272.74 610.36 271.93 609.445 270.28 609.445H269.5V605.5H267.85V616H270.28ZM269.5 614.5V610.945H270.28C270.805 610.945 271.09 611.185 271.09 611.935V613.51C271.09 614.26 270.805 614.5 270.28 614.5H269.5ZM273.244 607H274.969V616H276.619V607H278.344V605.5H273.244V607ZM281.501 605.5H279.071V616H280.721V612.055H281.501C283.151 612.055 283.961 611.14 283.961 609.46V608.095C283.961 606.415 283.151 605.5 281.501 605.5ZM281.501 607C282.026 607 282.311 607.24 282.311 607.99V609.565C282.311 610.315 282.026 610.555 281.501 610.555H280.721V607H281.501ZM287.155 616C288.805 616 289.615 615.085 289.615 613.405V612.04C289.615 610.36 288.805 609.445 287.155 609.445H286.375V605.5H284.725V616H287.155ZM286.375 614.5V610.945H287.155C287.68 610.945 287.965 611.185 287.965 611.935V613.51C287.965 614.26 287.68 614.5 287.155 614.5H286.375ZM292.21 616V605.5H290.56V616H292.21Z" fill="#594CE6"/>
</svg>
